<svg id="Ebene_1" data-name="Ebene 1" xmlns="http://www.w3.org/2000/svg" viewBox="0 0 256 256"><defs><style>.cls-1{fill:#3687cf;}.cls-2{fill:#7d858c;}.cls-3{fill:#37434e;}.cls-4{fill:#a7b2bb;}.cls-5{fill:#fff;}.cls-6{fill:#282c36;}.cls-7{fill:#e67587;}</style></defs><title>18</title><path class="cls-1" d="M202,85.09c7.76-3,16.46-4.15,22.6,1.62-1.54-3.83-9.16-8.88-19.92-9.55,7.42-2.64,17.1-3.81,29.29-1.13-7.54-3.21-28.63-6-47.15-2.41.38-.66.72-1.32,1-1.94,4.13-9.39,10.89-6.93,11.34-6.75-19.55-8.33-34.85,21.53-32.45,11.95A10.64,10.64,0,0,0,167,73.2c2.09-2,5.17-3.68,9.66-4.57-2.72-1-6.9-1.21-11.55-.88-3.41-5.83-10.46-9.79-14.59-7,2.33,1.76,3.23,4.92,3.3,8.63-2,.45-3.94,1-5.78,1.54-7.28-10.93-22-8.32-27.55-3.87,9.89-4.07,14.49,2.31,16.62,9.39-.84.89-2.09.45-2.09,1.36,0,7.38-15-15-58.64-10.49,1-.09,15.86-1.33,19.46,6.06,1.43,2.94.61,4,6.06,7.28C62,68.54,22.6,76.77,14.07,81.38c17.24-4.24,36.58-1.65,51.58,2-20.56,3.43-36,12.06-33.73,14.22,38.63-18,55.47-4.78,58.08-2.39,2.27,3.11,12.24,7,47.65,6.93,40,0,48.34-5.33,49.15-8.54a74.72,74.72,0,0,1,6.88-4.44c5.84-1.89,15.46-3.07,31.25-1.24C225.57,86.65,215,84.73,202,85.09Z"/><path class="cls-2" d="M253.75,169.86C246.24,131.3,216,103,186.27,106.54S138.48,144.32,146,182.88s36.52,59.3,66.28,55.7S261.26,208.43,253.75,169.86Z"/><path class="cls-2" d="M2,169.86C9.52,131.3,39.73,103,69.49,106.54s47.8,37.78,40.29,76.34-36.53,59.3-66.28,55.7S-5.5,208.43,2,169.86Z"/><path class="cls-3" d="M185.78,84.74l-5.15,141.18s43-20,43-68.67S190.61,85.68,185.78,84.74Z"/><path class="cls-3" d="M70.5,84.74l5.15,140.09s-43-19.88-43-68.14S65.66,85.67,70.5,84.74Z"/><path class="cls-4" d="M213.05,154.59c0-50.49-22.9-86.57-84.75-86.57-62.45,0-84.75,36.08-84.75,86.57,0,31.81,15.07,59.82,37.93,76.19a89.38,89.38,0,0,0,99.41-4.51C200.48,209.53,213.05,183.64,213.05,154.59Z"/><path class="cls-5" d="M61.71,112.58c-12.5,0-44.09-2.29-53.74-24.86a2.5,2.5,0,0,0-4.79.76C2,103.37,6,121.81,30.5,137c27,16.73,45.77-2.09,41.26-17A10.5,10.5,0,0,0,61.71,112.58Z"/><path class="cls-3" d="M21.28,132.29C6.72,120.54.31,106.1,1.74,88.37A3.89,3.89,0,0,1,5,84.79a3.92,3.92,0,0,1,4.29,2.36,31,31,0,0,0,9.27,12.08c13.05,10.52,33.36,11.9,43.12,11.9h0a12,12,0,0,1,11.45,8.43c2.2,7.28-.74,15.55-7.31,20.6-9.23,7.09-22.73,6.37-36.11-1.92A83.91,83.91,0,0,1,21.28,132.29Zm-15-44.43a1,1,0,0,0-.83-.2,1,1,0,0,0-.86.94c-1.58,19.66,7.13,35.09,26.63,47.18,12.31,7.62,24.58,8.4,32.81,2.08,5.62-4.32,8.15-11.33,6.3-17.46A9.09,9.09,0,0,0,61.71,114h0c-13.25,0-45.14-2.49-55.07-25.74A1.07,1.07,0,0,0,6.32,87.86Z"/><path class="cls-5" d="M195.45,112.58c12.5,0,44.09-2.29,53.74-24.86a2.5,2.5,0,0,1,4.79.76c1.19,14.89-2.78,33.33-27.32,48.53-27,16.73-45.77-2.09-41.26-17A10.5,10.5,0,0,1,195.45,112.58Z"/><path class="cls-3" d="M227.43,138.24c-13.38,8.29-26.88,9-36.11,1.92-6.57-5-9.51-13.32-7.31-20.6a12,12,0,0,1,11.45-8.43h0c9.76,0,30.07-1.38,43.12-11.9a31,31,0,0,0,9.27-12.08,3.95,3.95,0,0,1,7.57,1.22c1.43,17.73-5,32.17-19.54,43.92A83.91,83.91,0,0,1,227.43,138.24Zm23.09-49.95C240.59,111.54,208.7,114,195.45,114h0a9.09,9.09,0,0,0-8.66,6.37c-1.85,6.13.68,13.14,6.3,17.46,8.23,6.32,20.5,5.54,32.81-2.08,19.5-12.09,28.21-27.52,26.63-47.18a1,1,0,0,0-.86-.94,1,1,0,0,0-.83.2A1.07,1.07,0,0,0,250.52,88.29Z"/><path class="cls-6" d="M159.54,83.53c15.31-1,29.78,4,32.32,11.28a5,5,0,0,0,0-2.94c-2.54-7.26-17-12.31-32.32-11.28-13.2.89-22.69,6-23.45,12,0,.28.88.34,1,.07C140.05,88,148.49,84.27,159.54,83.53Z"/><path class="cls-6" d="M97.06,83.53c-15.31-1-29.78,4-32.31,11.28a4.78,4.78,0,0,1,0-2.94c2.53-7.26,17-12.31,32.31-11.28,13.2.89,22.69,6,23.45,12,0,.28-.88.34-1,.07C116.56,88,108.11,84.27,97.06,83.53Z"/><path class="cls-4" d="M178.81,98.4a45.4,45.4,0,0,0-7.12-5.54c-4.41-4.13-6-8-7.07-12.72a34.25,34.25,0,0,1-1.59-6c-5.24-30.33-43.33-61.88-89.37-61.88-44.63,0-68,28.87-73.24,58-.69,3.79,9.34,6.81,11.08,5.21a96.53,96.53,0,0,1,24.11-16.6c28.29-13.42,45.9-13.07,58-.56,7.51,7.79,5.24,18.88-4.37,29.38C88,89.06,76.66,95.86,74.78,98.46c-8.4,11.63,1.49,10.4,1.49,19.68,0,18.14,13.94,32.85,50.53,32.85s50.53-14.71,50.53-32.85C177.33,111.58,184.8,104.49,178.81,98.4Z"/><path class="cls-3" d="M77.85,99.1s46.87,35.76,102.24,0c.66,21.59,24.07,113.55-53.39,113.55S77.85,99.1,77.85,99.1Z"/><path class="cls-7" d="M111.2,180.41s-35.27,32.24,15.5,32.24,16.15-32.24,16.15-32.24S126.61,175.71,111.2,180.41Z"/></svg>