<svg id="Ebene_1" data-name="Ebene 1" xmlns="http://www.w3.org/2000/svg" viewBox="0 0 256 256"><defs><style>.cls-1{fill:#7d858c;}.cls-2{fill:#37434e;}.cls-3{fill:#fff;}.cls-4{fill:#a7b2bb;}.cls-5{fill:#3687cf;}.cls-6{fill:#282c36;}</style></defs><title>19</title><path class="cls-1" d="M254.87,103.22c-7.55,51.13-34.32,66.91-64.6,67.58-32.14.72-71.6-56.42-29.81-77.85C213.16,66,225.81.81,233.13.81,241.79.81,262.42,52.08,254.87,103.22Z"/><path class="cls-1" d="M3.13,103.22c7.55,51.13,34.32,66.91,64.6,67.58,32.14.72,71.6-56.42,29.81-77.85C44.84,65.92,32.19.81,24.87.81,16.21.81-4.42,52.08,3.13,103.22Z"/><path class="cls-2" d="M188.54,33.5l-5.18,141.9s43.23-20.14,43.23-69S193.39,34.45,188.54,33.5Z"/><path class="cls-2" d="M72.67,33.5l5.18,140.8s-43.23-20-43.23-68.48S67.82,34.44,72.67,33.5Z"/><path class="cls-3" d="M70.6,159.44s8,61.31-31.16,62.32c15.43,4.79,40,9.15,57.08-23.1S83.52,143.53,70.6,159.44Z"/><path class="cls-2" d="M81.16,154.25c13.49,0,28.63,19.38,15.36,44.41-11.09,20.89-25.29,26.42-38.11,26.42a64,64,0,0,1-19-3.32c39.15-1,31.16-62.32,31.16-62.32a13.32,13.32,0,0,1,10.56-5.19m0-2.14a15.53,15.53,0,0,0-12.22,6l-.58.71.12.92c0,.34,4.3,34.64-9.83,51.15-4.8,5.6-11.28,8.54-19.26,8.75l-13,.33,12.42,3.86a67.35,67.35,0,0,0,19.6,3.41c16.84,0,30.3-9.27,40-27.56,6.76-12.75,7.17-25.84,1.11-35.91-4.32-7.18-11.35-11.64-18.36-11.64Z"/><path class="cls-3" d="M190.48,159.44s-8,61.31,31.16,62.32c-15.43,4.79-40,9.15-57.08-23.1S177.55,143.53,190.48,159.44Z"/><path class="cls-2" d="M179.92,154.25a13.32,13.32,0,0,1,10.56,5.19s-8,61.31,31.16,62.32a64,64,0,0,1-19,3.32c-12.82,0-27-5.53-38.11-26.42-13.27-25,1.87-44.4,15.36-44.41m0-2.14h0c-7,0-14,4.46-18.36,11.64-6.06,10.07-5.65,23.16,1.11,35.91,9.7,18.29,23.16,27.56,40,27.56a67.35,67.35,0,0,0,19.6-3.41L234.69,220l-13-.33c-8-.21-14.47-3.15-19.26-8.76-14.15-16.54-9.87-50.8-9.83-51.14l.12-.91-.58-.72a15.53,15.53,0,0,0-12.22-6Z"/><path class="cls-4" d="M216,103.7c0-50.74-23-87-85.18-87C68,16.7,45.59,53,45.59,103.7c0,32,15.15,60.13,38.12,76.58a89.81,89.81,0,0,0,99.91-4.53C203.31,158.92,216,132.9,216,103.7Z"/><path class="cls-4" d="M182.12,155.84c0-17-14.17-30.83-51.38-30.83s-51.38,13.8-51.38,30.83c0,8.7-10,7.55-1.51,18.46,1.92,2.45,13.42,8.82,14.66,10.07,9.78,9.86,9.32,20,4.45,27.57-3,4.57-18.16,17.06-28.88,5.29-7.56-8.32,10.72-63.75-13.57-39.29-6.78,7.68-9.64,23.22-16.42,26.43C30.94,209,11.84,171.16,3.8,182.94c-10.89,17.14,27.53,72.25,72.91,72.25,46.82,0,85.55-29.62,90.87-58.07a28.9,28.9,0,0,1,1.62-5.62,20.93,20.93,0,0,1,7.19-11.94,46.81,46.81,0,0,0,7.23-5.2C189.72,168.64,182.12,162,182.12,155.84Z"/><path class="cls-5" d="M130.62,2.34h-.27c-43.9.11-71.65,23.79-83.52,56.17-.68,1.85-1.48,3.72,4.91,5,3.52.69,18.2-25.91,23.26-25.4,15.2,1.54,96.85,1.54,112,0,5.07-.51,19.48,26.22,23,25.53,6.39-1.25,4.79-3.26,4.11-5.11C202.27,26.13,174.53,2.45,130.62,2.34Z"/><path class="cls-5" d="M190.68,46.58s-14.55,30.21-47.09,31.23c-8.48-1-6.54-12-.85-11.07C150.72,68,162.77,73.78,190.68,46.58Z"/><ellipse class="cls-6" cx="159.22" cy="95.91" rx="19.22" ry="23.34" transform="translate(-11.25 21.81) rotate(-7.57)"/><path class="cls-5" d="M72.49,46.58s14.56,30.21,47.09,31.23c8.49-1,6.54-12,.86-11.07C112.45,68,100.41,73.78,72.49,46.58Z"/><ellipse class="cls-6" cx="105.58" cy="95.93" rx="23.34" ry="19.22" transform="translate(-3.42 187.95) rotate(-82.43)"/></svg>