<svg id="Ebene_1" data-name="Ebene 1" xmlns="http://www.w3.org/2000/svg" viewBox="0 0 256 256"><defs><style>.cls-1{fill:#3687cf;}.cls-2{fill:#7d858c;}.cls-3{fill:#37434e;}.cls-4{fill:#a7b2bb;}.cls-5{fill:#fff;}.cls-6{fill:#282c36;}.cls-7{fill:#e67587;}.cls-8{fill:aqua;}</style></defs><title>20</title><path class="cls-1" d="M215.82,121.87c8.43-2.14,17.24-1.67,21.6,7-.42-5.21-6.42-13.27-16.73-16.47,8-1.72,17.76-1.1,28.9,5-6.45-5.71-26.23-13.87-45.32-13.35.55-.76,1.07-1.51,1.52-2.24,6.69-11,12.59-6.41,13-6.08-16.72-14.84-40.12,19.69-35.06,8.06A17.75,17.75,0,0,0,185,99.13a17.32,17.32,0,0,1,10.72-3.69c-2.38-1.84-6.38-3-11-3.64-1.67-8.13-7.43-14.69-12.27-12,1.78,2.74,1.76,7,.78,11.67a59.13,59.13,0,0,0-6.08.7c-4-15.46-19.08-15.36-25.79-10.93,10.81-3,13.49,6.09,13.56,15.54-1.08.94-2.16.11-2.42,1.27C150.37,107.41,142,75.78,98.2,71.94c1,.11,15.86,1.78,17.27,11.94.57,4-.52,5.15,3.86,10.55C83.88,70.31,43.08,72.14,33.45,76.13c18-1.62,36.16,5.89,49.77,13.77-21-.14-38.57,7.44-36.95,10.67,42.79-14.32,55.49,6.05,57.36,9.66,1.33,4.44,10,11.49,44.53,19.19,39.06,8.71,48.69,3.79,50.39-.1a71,71,0,0,1,8-4.13c6.23-1.12,16-.51,30.85,5.25C238.35,129,228.53,124.23,215.82,121.87Z"/><path class="cls-2" d="M254.66,197.12c1.09-39.27-22.2-73.53-52-76.52s-54.89,26.42-56,65.7,22.7,65.84,52.52,68.83S253.57,236.4,254.66,197.12Z"/><path class="cls-2" d="M9,142.16c15.75-36,51.42-57.07,79.68-47.06s38.39,47.3,22.65,83.29-48.59,49.89-76.85,39.89S-6.76,178.16,9,142.16Z"/><path class="cls-3" d="M206.91,99.21,171.06,235.86s46.35-10.16,57-57.62S211.42,101.19,206.91,99.21Z"/><path class="cls-3" d="M94.41,74,68.85,211.88S31.22,183.09,41.75,136,89.49,73.9,94.41,74Z"/><path class="cls-4" d="M218.28,173.33c11-49.27-3.45-89.48-63.81-103-60.95-13.63-90.59,16.71-101.61,66C45.92,167.37,54.51,198,73.24,219a89.38,89.38,0,0,0,98,17.3C194,224.2,211.93,201.68,218.28,173.33Z"/><path class="cls-5" d="M206.6,121.27c9.18,3.3,32.79,8.93,43.59-15.13,1.15-2.57,3.67-1,3.39,2.16-1.57,17.86-7.52,38.55-28.06,50-22.6,12.6-33.3-14.53-27.53-30.95C199.7,122.5,203.21,120.05,206.6,121.27Z"/><path class="cls-3" d="M225.88,160c-11.2,6.24-21.24,3.53-26.86-7.26a35.07,35.07,0,0,1-2-26.21c1.92-5.46,6-8.31,9.8-6.92h0c7.17,2.58,22.33,6.31,33.66-2.66a30.61,30.61,0,0,0,8.8-11.78c.82-1.83,2.24-2.49,3.54-1.66s2,2.87,1.83,5.08c-1.87,21.28-9,36.62-21.59,46.62A53.91,53.91,0,0,1,225.88,160Zm25.2-52.79c-11.13,24.78-35,19.32-44.72,15.82h0c-2.91-1-6,1.1-7.42,5.23a29.78,29.78,0,0,0,1.76,22.23c5,9.62,14.16,11.94,24.46,6.2,16.33-9.1,25.27-25,27.34-48.59a1.3,1.3,0,0,0-.48-1.33.53.53,0,0,0-.64,0A1.19,1.19,0,0,0,251.08,107.16Z"/><path class="cls-6" d="M181.57,92.3c15.17,2.34,28.19,10.42,29.07,18.06a4.76,4.76,0,0,0,.64-2.86c-.88-7.64-13.9-15.73-29.07-18.07-13.07-2-23.45.91-25.51,6.64-.09.27.78.53,1,.3C161.57,92.39,170.63,90.62,181.57,92.3Z"/><path class="cls-6" d="M120.6,78.66c-14.72-4.35-29.94-2.58-34,4a4.81,4.81,0,0,1,.64-2.87c4.06-6.53,19.28-8.3,34-3.95,12.69,3.75,20.83,10.82,20.25,16.88,0,.28-.93.14-1-.16C138.65,87.26,131.21,81.8,120.6,78.66Z"/><path class="cls-4" d="M197.12,111a45.44,45.44,0,0,0-5.73-7,22.77,22.77,0,0,1-4.12-14,32.44,32.44,0,0,1-.24-6.19c1.51-30.74-28.78-69.85-73.71-79.9C69.76-5.74,40.66,17.33,29.17,44.65c-1.49,3.55,7.63,8.68,9.69,7.5A96.76,96.76,0,0,1,66,41.22c30.54-6.92,47.65-2.73,56.68,12.11,5.63,9.24,1,19.57-10.68,27.71-1.49,1-14,5.2-16.42,7.33-10.73,9.51-.81,10.47-2.84,19.52-4,17.71,6.43,35.11,42.14,43.1s52.53-3.32,56.49-21C192.81,123.56,201.65,118.28,197.12,111Z"/><path class="cls-3" d="M98.45,89.66s37.93,45.13,99.78,22.32c-4.07,21.22-1.31,116.07-76.9,99.16S98.45,89.66,98.45,89.66Z"/><path class="cls-7" d="M113.17,176.63s-42.65,29.08,6.89,40.17,24-33.26,24-33.26S129.4,174.63,113.17,176.63Z"/><path class="cls-5" d="M84.32,88.91c-9.75.46-34-1.09-37.23-27.26-.35-2.79-3.22-2-3.88,1.07-3.74,17.52-4.13,39.05,12.14,56,17.91,18.68,36.11-4.12,35.41-21.5C90.55,92.11,87.91,88.74,84.32,88.91Z"/><path class="cls-3" d="M49.05,113.53c-9.14-13.27-11.41-30-6.94-50.9.46-2.17,1.76-3.9,3.24-4.32S48,59,48.24,60.93a30.73,30.73,0,0,0,4.95,13.85C61.38,86.68,77,87.56,84.59,87.2h0c4.08-.19,7.1,3.72,7.33,9.5a35.05,35.05,0,0,1-9.59,24.47c-8.54,8.66-18.94,8.31-27.81-1A53.68,53.68,0,0,1,49.05,113.53ZM45.78,61.86a.55.55,0,0,0-.61-.2c-.2.05-.67.27-.85,1.14-5,23.16-1.07,41,11.86,54.47,8.17,8.51,17.59,9,25.21,1.26A29.84,29.84,0,0,0,89.6,97.79c-.18-4.37-2.46-7.32-5.56-7.17h0c-10.33.48-34.74-1.3-38.1-28.25A1.27,1.27,0,0,0,45.78,61.86Z"/><path class="cls-8" d="M106.89,76.32S85.53,63.93,86.83,47.48a31.76,31.76,0,0,0-9.31-25.61c-7.58-7.15-19.7-6.62-27.07,1.19s-7.2,19.94.38,27.09C65.9,64.37,106.89,76.32,106.89,76.32Z"/><path class="cls-8" d="M197.11,98.81s18-16.68,12.64-32.5,2.87-27,2.87-27c5.69-8.61,17.74-10.67,26.91-4.61s12,18,6.29,26.58C234.49,78.37,197.11,98.81,197.11,98.81Z"/></svg>