<svg id="Ebene_1" data-name="Ebene 1" xmlns="http://www.w3.org/2000/svg" viewBox="0 0 256 256"><defs><style>.cls-1{fill:#3687cf;}.cls-2{fill:#7d858c;}.cls-3{fill:#37434e;}.cls-4{fill:#a7b2bb;}.cls-5{fill:#282c36;}.cls-6{fill:#fff;}</style></defs><title>21</title><path class="cls-1" d="M193.91,67.58c6.55-4,13.9-5.46,19.09,2.13-1.31-5-7.74-11.68-16.83-12.56,6.27-3.46,14.44-5,24.75-1.48-6.38-4.22-24.2-7.9-39.84-3.17.32-.87.61-1.73.84-2.55,3.49-12.34,9.2-9.1,9.58-8.87C175,30.13,162.06,69.37,164.08,56.78a21.12,21.12,0,0,0,.2-4.83,14.56,14.56,0,0,1,8.16-6c-2.3-1.29-5.83-1.59-9.76-1.16-2.88-7.65-8.84-12.85-12.33-9.13,2,2.31,2.74,6.47,2.8,11.34a46.42,46.42,0,0,0-4.89,2C142.1,34.66,129.69,38.08,125,43.94c8.36-5.35,12.24,3,14,12.34-.71,1.16-1.76.58-1.76,1.78,0,9.7-12.7-19.67-49.55-13.78.84-.12,13.4-1.75,16.44,8,1.21,3.87.52,5.2,5.12,9.56-33.67-16-67-5.15-74.19.9C49.65,57.13,66,60.53,78.67,65.31,61.3,69.82,48.23,81.16,50.17,84,82.81,60.41,97,77.71,99.25,80.87,101.16,85,109.58,90,139.5,90c33.82,0,40.85-7,41.54-11.23a63.86,63.86,0,0,1,5.81-5.82c4.93-2.49,13.06-4,26.4-1.64C213.79,69.62,204.82,67.11,193.91,67.58Z"/><path class="cls-2" d="M254.19,161.53c-7.51-43.22-37.72-75-67.48-71s-47.79,42.33-40.29,85.55,36.53,66.45,66.29,62.42S261.7,204.75,254.19,161.53Z"/><path class="cls-2" d="M2.45,161.53c7.51-43.22,37.72-75,67.48-71s47.79,42.33,40.28,85.55-36.52,66.45-66.28,62.42S-5.06,204.75,2.45,161.53Z"/><path class="cls-3" d="M186.22,84.74l-5.16,141.18s43-20,43-68.67S191.05,85.68,186.22,84.74Z"/><path class="cls-3" d="M70.93,84.74l5.16,140.09s-43-19.88-43-68.14S66.1,85.67,70.93,84.74Z"/><path class="cls-4" d="M213.49,154.59c0-50.49-22.9-86.57-84.75-86.57C66.28,68,44,104.1,44,154.59c0,31.81,15.07,59.82,37.92,76.19a89.4,89.4,0,0,0,99.42-4.51C200.92,209.53,213.49,183.64,213.49,154.59Z"/><ellipse class="cls-5" cx="161.75" cy="90.98" rx="13.46" ry="19.82" transform="translate(66.2 250.08) rotate(-88.37)"/><ellipse class="cls-5" cx="94.25" cy="90.98" rx="19.82" ry="13.46" transform="translate(-2.55 2.72) rotate(-1.63)"/><path class="cls-6" d="M62.14,112.58c-12.49,0-44.09-2.29-53.73-24.86a2.5,2.5,0,0,0-4.79.76C2.42,103.37,6.4,121.81,30.93,137c27,16.73,45.78-2.09,41.26-17A10.48,10.48,0,0,0,62.14,112.58Z"/><path class="cls-3" d="M21.71,132.29C7.15,120.54.75,106.1,2.17,88.37a3.89,3.89,0,0,1,3.29-3.58,3.9,3.9,0,0,1,4.28,2.36A31.17,31.17,0,0,0,19,99.23c13.05,10.52,33.37,11.9,43.13,11.9h0a12,12,0,0,1,11.44,8.43c2.2,7.28-.73,15.55-7.3,20.6-9.23,7.09-22.73,6.37-36.11-1.92A85.24,85.24,0,0,1,21.71,132.29ZM6.76,87.86a1,1,0,0,0-.83-.2,1,1,0,0,0-.86.94c-1.58,19.66,7.13,35.09,26.63,47.18,12.31,7.62,24.57,8.4,32.81,2.08,5.62-4.32,8.15-11.33,6.29-17.46A9.07,9.07,0,0,0,62.14,114h0C48.89,114,17,111.54,7.07,88.29A1,1,0,0,0,6.76,87.86Z"/><path class="cls-6" d="M195.89,112.58c12.5,0,44.09-2.29,53.74-24.86a2.49,2.49,0,0,1,4.78.76c1.2,14.89-2.77,33.33-27.31,48.53-27,16.73-45.77-2.09-41.26-17A10.48,10.48,0,0,1,195.89,112.58Z"/><path class="cls-3" d="M227.86,138.24c-13.37,8.29-26.87,9-36.1,1.92-6.57-5-9.51-13.32-7.31-20.6a12,12,0,0,1,11.44-8.43h0c9.76,0,30.08-1.38,43.13-11.9a31.17,31.17,0,0,0,9.27-12.08,3.95,3.95,0,0,1,7.57,1.22c1.43,17.73-5,32.17-19.54,43.92A85.24,85.24,0,0,1,227.86,138.24ZM251,88.29C241,111.54,209.14,114,195.89,114h0a9.08,9.08,0,0,0-8.66,6.37c-1.85,6.13.68,13.14,6.3,17.46,8.23,6.32,20.49,5.54,32.8-2.08,19.51-12.09,28.22-27.52,26.64-47.18a1,1,0,0,0-.86-.94,1,1,0,0,0-.83.2A1.07,1.07,0,0,0,251,88.29Z"/><path class="cls-4" d="M179.24,109.07a47,47,0,0,0-7.11-6.23c-4.41-4.65-6-9-7.07-14.3a39.89,39.89,0,0,1-1.59-6.73c-5.24-34.08-43.33-69.54-89.37-69.54-44.64,0-68,32.44-73.25,65.21-.68,4.27,9.34,7.66,11.09,5.86A97.62,97.62,0,0,1,36.05,64.68C64.34,49.6,82,50,94,64.06c7.51,8.75,5.24,21.22-4.38,33-1.22,1.49-12.53,9.13-14.41,12.06-8.4,13.07,1.48,11.68,1.48,22.11,0,20.39,13.94,36.92,50.54,36.92s50.53-16.53,50.53-36.92C177.77,123.88,185.24,115.91,179.24,109.07Z"/><path class="cls-3" d="M77.55,140.47c0,36.93,102.24,36.93,102.24,0,.66,12.86,24.07,81-53.39,81S77.55,140.47,77.55,140.47Z"/></svg>