<svg id="Ebene_1" data-name="Ebene 1" xmlns="http://www.w3.org/2000/svg" viewBox="0 0 256 256"><defs><style>.cls-1{fill:#b9c1c9;}.cls-2{fill:#5e6469;}.cls-3{fill:#a7b2bb;}.cls-4{fill:#7d858c;}.cls-5{fill:#3687cf;}</style></defs><title>Mastomojies [Wiederhergestellt]</title><path class="cls-1" d="M52.88,35.8A180.43,180.43,0,0,0,48.35,1H28.45a243.92,243.92,0,0,1,7.88,35.34c2.09,38.37,4,93,4.14,158.37.33,8.82,17.82,8.16,17.48-.66C53,147,52.31,92.55,52.88,35.8Z"/><path class="cls-2" d="M30.87,1H28.5a243.63,243.63,0,0,1,7.83,35.18c2.1,38.36,4,93,4.14,158.36A5.73,5.73,0,0,0,42.76,199c-.25-68.17-2.3-125.23-4.6-165.39A249.23,249.23,0,0,0,30.87,1Z"/><path class="cls-2" d="M39,102.75A8.82,8.82,0,0,1,41.25,96c2.75-2.75,7.89-9.51,8.5-30.75,0-6,4-2.75,4-2.75L54,119s-.5,7.5-2,5.25-8.75-.5-12.5,2.75C39.75,119.75,39,102.75,39,102.75Z"/><path class="cls-3" d="M75.27,72.44C63.52,62.55,61.19,61.77,52.69,60.52c.13,3.25-1.11,4.45-1.4,12.1-1.28,33.46-21,26.9-25,39.62s4.78,19.13,12.14,13.41,12.08-6.44,18.45-2c77.79,61.75,145.75,72.56,199.42,63.19V92C165.35,117.61,84.65,80.33,75.27,72.44Z"/><path class="cls-4" d="M56.53,116.24c-14.71-1.89-17.16,10-31,4.27,1.14,6.9,7.42,9.43,12.94,5.14,7.37-5.73,12.08-6.44,18.45-2,77.79,61.75,145.75,72.56,199.42,63.19V174C148.33,174.15,67.75,117.68,56.53,116.24Z"/><path class="cls-4" d="M141.85,98.83s-.47,11.46-5.66,15.47,10.67,1,14.69-14.19A52.39,52.39,0,0,1,141.85,98.83Z"/><path class="cls-4" d="M165.93,101.54s-4.06,12.53-10.56,17.19,13.28-.08,20.07-16.72A72.92,72.92,0,0,1,165.93,101.54Z"/><path class="cls-5" d="M65.81,163.56a92.61,92.61,0,0,0-11.25-18.37,8.52,8.52,0,0,1-.71-1.06A5.1,5.1,0,0,0,48,141.66,9.26,9.26,0,0,0,42.84,145,91.92,91.92,0,0,0,31.2,163.87C27.81,171.26,25,179.18,25,188c0,.54,0,1.11.05,1.66s.07,1.12.14,1.69c.09,1.2.32,2.06.48,3.07.37,2,.66,3.93,1,5.9.6,3.93,1.18,7.86,1.85,11.78s1.33,7.85,2,11.77,1.39,7.85,2.16,11.76l.8-.07c0-4,0-8-.09-12s-.09-8-.2-11.94c0-2.73-.15-5.46-.25-8.18.2,1.67.38,3.34.56,5,.46,4.35.93,8.71,1.46,13.06s1.07,8.7,1.63,13,1.11,8.7,1.74,13l.8,0c.15-4.39.23-8.77.3-13.15s.16-8.77.18-13.15,0-8.76,0-13.14c0-2.19,0-4.37,0-6.56l.07-3.29c0-.95,0-1.91.1-2.87l0,.86c.07,1.11.11,2.24.21,3.33l.32,3.24c.2,2.16.36,4.33.52,6.49.32,4.32.65,8.64,1,13s.79,8.64,1.21,13,.83,8.64,1.33,13l.8,0c.28-4.34.49-8.67.7-13s.43-8.67.58-13,.31-8.66.42-13c.06-2.16.11-4.33.21-6.5l.31-6.41.78-12.72c.11-2.05.2-4.12.27-6.18.07,2,.15,3.92.26,5.87L49.55,196l.31,6.41c.1,2.17.15,4.34.21,6.5.11,4.34.23,8.67.42,13s.37,8.67.58,13,.42,8.67.7,13l.8,0c.5-4.32.92-8.64,1.33-13s.85-8.64,1.21-13,.73-8.65,1-13c.16-2.16.32-4.32.52-6.48l.32-3.24c.1-1.1.14-2.23.21-3.34,0-.29,0-.57,0-.86.06,1,.09,1.92.1,2.87l.07,3.29c0,2.19,0,4.38,0,6.57,0,4.37,0,8.75,0,13.13s.1,8.77.18,13.15.15,8.77.3,13.15l.8,0c.63-4.35,1.19-8.69,1.74-13s1.13-8.7,1.63-13.05,1-8.71,1.46-13.06c.18-1.67.36-3.34.56-5-.1,2.73-.2,5.45-.25,8.18-.11,4-.16,8-.2,11.94s-.11,8-.08,12l.79.07c.77-3.91,1.46-7.83,2.16-11.75s1.4-7.85,2-11.78S69.8,204,70.41,200c.3-2,.59-3.93,1-5.89.16-1,.39-1.88.48-3.08.07-.57.12-1.13.14-1.68s.06-1.13.05-1.67C72,178.87,69.2,171,65.81,163.56Z"/></svg>