<svg id="Ebene_1" data-name="Ebene 1" xmlns="http://www.w3.org/2000/svg" xmlns:xlink="http://www.w3.org/1999/xlink" viewBox="0 0 256 256"><defs><style>.cls-1{fill:#7d858c;}.cls-2{fill:#37434e;}.cls-3{fill:#fff;}.cls-4{fill:#a7b2bb;}.cls-5{fill:#3687cf;}.cls-6{fill:#efecdb;}.cls-7{fill:#282c36;}.cls-8{opacity:0.65;}.cls-10,.cls-18,.cls-9{stroke-miterlimit:10;}.cls-9{fill:url(#Weißgold);stroke:url(#Zinn_radial);}.cls-10{fill:url(#Weißgold-2);stroke:url(#Zinn_radial-2);}.cls-11,.cls-12,.cls-18,.cls-19{fill:none;stroke-linecap:round;}.cls-11,.cls-12,.cls-19{stroke-linejoin:round;stroke-width:4px;}.cls-11{stroke:url(#Messing_radial);}.cls-12{stroke:url(#Messing_radial-2);}.cls-13{fill:gray;}.cls-14{fill:#f2f2f2;}.cls-15{fill:#006837;}.cls-16{fill:#1a1a1a;opacity:0.14;}.cls-17{fill:#009245;}.cls-18{stroke:gray;stroke-width:0.5px;}.cls-19{stroke:url(#Gold);}</style><linearGradient id="Weißgold" x1="74.41" y1="105.07" x2="123.3" y2="105.07" gradientUnits="userSpaceOnUse"><stop offset="0.01" stop-color="#e8eaeb"/><stop offset="0.25" stop-color="#fffdea"/><stop offset="0.42" stop-color="#f0ecdd"/><stop offset="0.6" stop-color="#ddd6cc"/><stop offset="0.79" stop-color="#f2f2f2"/><stop offset="1" stop-color="#dedbc5"/></linearGradient><radialGradient id="Zinn_radial" cx="98.86" cy="105.07" r="19.77" gradientUnits="userSpaceOnUse"><stop offset="0.01" stop-color="#bbbcc2"/><stop offset="0.33" stop-color="#b6b6b3"/><stop offset="0.35" stop-color="#b6b5b2"/><stop offset="0.5" stop-color="#a7a9a9"/><stop offset="0.67" stop-color="#91989c"/><stop offset="1" stop-color="#71797d"/></radialGradient><linearGradient id="Weißgold-2" x1="132.11" y1="105.16" x2="181" y2="105.16" xlink:href="#Weißgold"/><radialGradient id="Zinn_radial-2" cx="156.55" cy="105.16" r="19.77" xlink:href="#Zinn_radial"/><radialGradient id="Messing_radial" cx="99.27" cy="105.01" r="21.2" gradientUnits="userSpaceOnUse"><stop offset="0.18" stop-color="#f8f0e4"/><stop offset="0.59" stop-color="#f2d78f"/><stop offset="1" stop-color="#c58511"/></radialGradient><radialGradient id="Messing_radial-2" cx="156.97" cy="105.1" r="21.2" xlink:href="#Messing_radial"/><linearGradient id="Gold" x1="120.71" y1="92.11" x2="136.59" y2="92.11" gradientUnits="userSpaceOnUse"><stop offset="0.01" stop-color="#fccb00"/><stop offset="0.25" stop-color="#fffad2"/><stop offset="0.3" stop-color="#faf1c1"/><stop offset="0.39" stop-color="#edd894"/><stop offset="0.51" stop-color="#d8b14c"/><stop offset="0.6" stop-color="#c9961a"/><stop offset="0.81" stop-color="#e9cd76"/><stop offset="0.87" stop-color="#f2dc8e"/><stop offset="1" stop-color="#fffad2"/></linearGradient></defs><title>Mastomojies [Wiederhergestellt]</title><path class="cls-1" d="M2.13,109.14C9.64,160,39.85,197.42,69.61,192.68S117.4,142.84,109.9,92,73.37,13.74,43.61,18.48-5.38,58.26,2.13,109.14Z"/><path class="cls-1" d="M253.87,109.14c-7.51,50.88-37.72,88.28-67.48,83.54S138.6,142.84,146.1,92s36.53-78.23,66.29-73.49S261.38,58.26,253.87,109.14Z"/><path class="cls-2" d="M185.9,34.09l-5.16,141.18s43-20,43-68.67S190.73,35,185.9,34.09Z"/><path class="cls-2" d="M70.61,34.09l5.16,140.09s-43-19.88-43-68.14S65.78,35,70.61,34.09Z"/><path class="cls-3" d="M172.91,159.36s21.36,57.69,56.31,40.44c-11.37,11.36-30.95,26.57-61,6.1S154.15,151.34,172.91,159.36Z"/><path class="cls-2" d="M167.29,158.16a14.26,14.26,0,0,1,5.62,1.2S189.08,203,216.29,203a29.06,29.06,0,0,0,12.93-3.22c-7.3,7.3-18,16.18-32.65,16.18-8.17,0-17.57-2.75-28.31-10.08-26.95-18.38-16.88-47.74-1-47.74m0-2.13h0c-7.5,0-14.06,5.56-16.71,14.16-3.09,10-.62,25.81,16.48,37.47,10.16,6.94,20.09,10.45,29.51,10.45,15.55,0,26.94-9.59,34.15-16.8l9.15-9.15-11.6,5.73a27,27,0,0,1-12,3c-25.4,0-41.23-41.85-41.39-42.27l-.31-.86-.85-.36a16.3,16.3,0,0,0-6.45-1.37Z"/><path class="cls-3" d="M86.49,157.48s-21.37,57.69-56.32,40.44c11.37,11.36,30.95,26.57,61,6.1S105.24,149.45,86.49,157.48Z"/><path class="cls-2" d="M92.1,156.28c15.91,0,26,29.36-1,47.74C80.4,211.34,71,214.1,62.83,214.1c-14.67,0-25.36-8.89-32.66-16.18a29.06,29.06,0,0,0,12.93,3.22c27.21,0,43.39-43.66,43.39-43.66a14.18,14.18,0,0,1,5.61-1.2m0-2.13a16.37,16.37,0,0,0-6.45,1.37l-.84.36-.32.86c-.16.42-16,42.26-41.39,42.26a27,27,0,0,1-12-3l-11.6-5.72,9.15,9.14c7.21,7.22,18.61,16.81,34.16,16.81,9.41,0,19.34-3.52,29.51-10.45,17.1-11.67,19.56-27.48,16.48-37.48-2.66-8.6-9.22-14.15-16.72-14.15Z"/><path class="cls-4" d="M213.17,103.94c0-50.49-22.9-86.57-84.75-86.57-62.46,0-84.75,36.08-84.75,86.57,0,31.81,15.07,59.82,37.93,76.19A89.38,89.38,0,0,0,181,175.62C200.6,158.88,213.17,133,213.17,103.94Z"/><path class="cls-5" d="M168.4,22.8c4.86-2.57,10.31-3.53,14.16,1.38-1-3.26-5.74-7.55-12.48-8.13,4.64-2.24,10.7-3.23,18.34-1C183.7,12.36,170.49,10,158.9,13c.23-.56.45-1.12.62-1.65,2.59-8,6.82-5.89,7.1-5.74C154.38-1.43,144.8,24,146.3,15.81a11.66,11.66,0,0,0,.14-3.12,10.74,10.74,0,0,1,6.05-3.89c-1.7-.84-4.32-1-7.23-.75-2.13-5-6.55-8.32-9.14-5.91,1.46,1.5,2,4.19,2.07,7.34a36,36,0,0,0-3.62,1.31C130,1.49,120.81,3.71,117.32,7.5c6.19-3.46,9.07,2,10.41,8-.53.75-1.31.38-1.31,1.15,0,6.28-9.41-12.73-36.73-8.92.62-.07,9.93-1.13,12.19,5.16.9,2.5.38,3.36,3.8,6.18-25-10.33-49.65-3.33-55,.59C61.48,16,73.6,18.24,83,21.34,70.12,24.25,60.44,31.6,61.87,33.43c24.19-15.26,34.74-4.07,36.37-2,1.43,2.65,7.67,5.92,29.84,5.9,25.06,0,30.28-4.54,30.78-7.27a46.51,46.51,0,0,1,4.31-3.77c3.66-1.61,9.69-2.61,19.57-1.06C183.14,24.12,176.49,22.5,168.4,22.8Z"/><ellipse class="cls-6" cx="100.23" cy="86.24" rx="22.95" ry="30.08" transform="translate(-11.91 16.19) rotate(-8.72)"/><circle class="cls-7" cx="102.12" cy="99.62" r="13.26"/><ellipse class="cls-6" cx="155.23" cy="86.24" rx="30.08" ry="22.95" transform="translate(46.46 226.61) rotate(-81.28)"/><circle class="cls-7" cx="153.35" cy="99.62" r="13.26"/><g class="cls-8"><path class="cls-9" d="M74.41,92.94H123.3a0,0,0,0,1,0,0v0A24.26,24.26,0,0,1,99,117.21h-.36A24.26,24.26,0,0,1,74.41,92.94v0A0,0,0,0,1,74.41,92.94Z"/><path class="cls-10" d="M132.11,93H181a0,0,0,0,1,0,0v0a24.26,24.26,0,0,1-24.26,24.26h-.36A24.26,24.26,0,0,1,132.11,93v0A0,0,0,0,1,132.11,93Z"/></g><path class="cls-11" d="M74.82,92.88h48.89a0,0,0,0,1,0,0v0a24.26,24.26,0,0,1-24.26,24.26h-.36A24.26,24.26,0,0,1,74.82,92.88v0A0,0,0,0,1,74.82,92.88Z"/><path class="cls-12" d="M132.52,93h48.89a0,0,0,0,1,0,0v0a24.26,24.26,0,0,1-24.26,24.26h-.36A24.26,24.26,0,0,1,132.52,93v0A0,0,0,0,1,132.52,93Z"/><path class="cls-4" d="M185.12,164.65c1.49-16.88-11.35-31.8-48.23-35.05s-52.13,9.18-53.62,26.06c-.76,8.62-10.63,6.6-3.12,18.16,1.69,2.59,12.53,9.92,13.65,11.26,8.83,10.63,10.21,21.14,2,27.72-13.18,10.56-31,9.32-58.37-5.68A98.49,98.49,0,0,1,14.5,189.54c-1.63-1.64-12,.27-11.6,3.86C5.79,221,27,249.92,72,253.89c46.39,4.09,87.37-21.87,95.14-49.6a28.86,28.86,0,0,1,2.1-5.43,20.84,20.84,0,0,1,8.17-11.2,47.43,47.43,0,0,0,7.62-4.52C191.52,178,184.58,170.75,185.12,164.65Z"/><path class="cls-13" d="M76.71,219.71s3.11,3.47,11.58,5.94c1.95,2.47,14.22,5,20.47,3.35,3.06-.82,2.12-.4,8.48-.53,33.88-.71,37.94-3.94,37.94-3.94S78.94,213.82,76.71,219.71Z"/><path class="cls-14" d="M20.92,88.86l15.36-1.09a3.84,3.84,0,0,1,1.46.19l76,25.14a4.83,4.83,0,0,0,1.73.24l82.8-4.3a3.72,3.72,0,0,1,2,.46l10.22,5.87L201.31,150,24.91,124.22Z"/><path class="cls-15" d="M91.14,224.26l-74.57-24a1.49,1.49,0,0,1-1-1.42l3-111.1a1.39,1.39,0,0,1,1.84-1.4l84.37,29.41Z"/><path class="cls-15" d="M107.4,226.47l78.27-3.25a1.49,1.49,0,0,0,1.38-1.09L213.8,114.26a1.4,1.4,0,0,0-1.4-1.85l-89.15,5.85Z"/><path class="cls-16" d="M110,226.3l-2.59.17,15.85-108.21,2.86-.16a.38.38,0,0,1,.38.45L110.22,226.13A.21.21,0,0,1,110,226.3Z"/><path class="cls-16" d="M88.69,223.41l2.45.85,13.58-108.51-2.72-.92a.37.37,0,0,0-.48.33l-13,108A.21.21,0,0,0,88.69,223.41Z"/><path class="cls-17" d="M107.82,226.53c-.28,1.93-17.2-.37-17-2.3l13.49-108.12a.7.7,0,0,1,1-.59c3.1,1.7,14.06,3.18,17.5,2.38a.69.69,0,0,1,.81.83Z"/><path class="cls-16" d="M212.4,112.41l-89.15,5.85,87.42-3.8a1.39,1.39,0,0,1,1.4,1.84L185.16,223.24l.51,0a1.49,1.49,0,0,0,1.38-1.09L213.8,114.26A1.4,1.4,0,0,0,212.4,112.41Z"/><path class="cls-16" d="M20.35,86.34l84.37,29.41-83.25-27a1.39,1.39,0,0,0-1.83,1.4L17.06,200.42l-.49-.16a1.49,1.49,0,0,1-1-1.42l3-111.1A1.39,1.39,0,0,1,20.35,86.34Z"/><line class="cls-18" x1="35.9" y1="89.12" x2="111.29" y2="114.72"/><line class="cls-18" x1="197.27" y1="110.92" x2="117.76" y2="115.48"/><path class="cls-4" d="M116.22,236.73c-16.24-.37-34-2.86-38.16-6.41-5.28-4.48-24.78-14.59-40.62-23.26a98.28,98.28,0,0,1-22.93-17.58c-1.63-1.64-12,.27-11.61,3.86C5.79,220.93,27,249.86,72,253.83c18.73,1.65,36-2.38,49.08-7.34C140.4,239.16,128.08,237,116.22,236.73Z"/><path class="cls-19" d="M122.71,92.52s6.79-2.09,11.88.08"/></svg>