<svg id="Ebene_1" data-name="Ebene 1" xmlns="http://www.w3.org/2000/svg" xmlns:xlink="http://www.w3.org/1999/xlink" viewBox="0 0 256 256"><defs><style>.cls-1{fill:#7d858c;}.cls-2{fill:#37434e;}.cls-3{fill:#fff;}.cls-4{fill:#a7b2bb;}.cls-5{fill:#3687cf;}.cls-6{fill:#efecdb;}.cls-7{fill:#282c36;}.cls-10,.cls-8{fill:none;stroke-linecap:round;stroke-linejoin:round;}.cls-8{stroke:#42210b;stroke-width:3px;}.cls-9{stroke-miterlimit:10;opacity:0.41;fill:url(#Weißgold);stroke:url(#Zinn_radial);}.cls-10{stroke-width:4px;stroke:url(#Messing_radial);}</style><linearGradient id="Weißgold" x1="77.56" y1="81.17" x2="132" y2="81.17" gradientTransform="matrix(0.11, 0.91, -1.02, 0.1, 218.65, -26.71)" gradientUnits="userSpaceOnUse"><stop offset="0.01" stop-color="#e8eaeb"/><stop offset="0.25" stop-color="#fffdea"/><stop offset="0.42" stop-color="#f0ecdd"/><stop offset="0.6" stop-color="#ddd6cc"/><stop offset="0.79" stop-color="#f2f2f2"/><stop offset="1" stop-color="#dedbc5"/></linearGradient><radialGradient id="Zinn_radial" cx="104.78" cy="81.17" r="27.72" gradientTransform="matrix(0.11, 0.91, -1.02, 0.1, 218.65, -26.71)" gradientUnits="userSpaceOnUse"><stop offset="0.01" stop-color="#bbbcc2"/><stop offset="0.33" stop-color="#b6b6b3"/><stop offset="0.35" stop-color="#b6b5b2"/><stop offset="0.5" stop-color="#a7a9a9"/><stop offset="0.67" stop-color="#91989c"/><stop offset="1" stop-color="#71797d"/></radialGradient><radialGradient id="Messing_radial" cx="104.78" cy="81.17" r="29.22" gradientTransform="matrix(0.11, 0.91, -1.02, 0.1, 218.65, -26.71)" gradientUnits="userSpaceOnUse"><stop offset="0.18" stop-color="#f8f0e4"/><stop offset="0.59" stop-color="#f2d78f"/><stop offset="1" stop-color="#c58511"/></radialGradient></defs><title>Mastomojies [Wiederhergestellt]</title><path class="cls-1" d="M2.54,108.14C10.05,159,40.26,196.42,70,191.68S117.82,141.84,110.31,91,73.78,12.74,44,17.48-5,57.26,2.54,108.14Z"/><path class="cls-1" d="M254.28,108.14c-7.51,50.88-37.72,88.28-67.48,83.54S139,141.84,146.52,91,183,12.74,212.8,17.48,261.79,57.26,254.28,108.14Z"/><path class="cls-2" d="M186.31,33.09l-5.15,141.18s43-20,43-68.67S191.14,34,186.31,33.09Z"/><path class="cls-2" d="M71,33.09l5.15,140.09s-43-19.88-43-68.14S66.19,34,71,33.09Z"/><path class="cls-3" d="M96.55,176.27S36,187.21,46.88,224.63c-9.19-13.18-20.74-35.12,4.67-61.09S107.74,159.21,96.55,176.27Z"/><path class="cls-2" d="M98.72,171a14.24,14.24,0,0,1-2.17,5.32S50.74,184.55,46,211.34a28.92,28.92,0,0,0,.9,13.29c-5.9-8.46-12.78-20.54-10.21-35,1.43-8,5.79-16.81,14.88-26.11,22.81-23.31,50-8.26,47.17,7.41m2.1.37h0c1.31-7.38-3-14.82-11-18.93-9.3-4.79-25.3-5.13-39.78,9.66-8.61,8.8-13.81,18-15.45,27.23-2.72,15.31,4.73,28.2,10.57,36.57l7.4,10.61L48.93,224a27.07,27.07,0,0,1-.85-12.33c4.44-25,48.41-33.27,48.85-33.35l.9-.16.51-.76a16.62,16.62,0,0,0,2.48-6.12Z"/><path class="cls-3" d="M149.32,181.93s61.21,6.18,53.3,44.33c8.14-13.85,17.94-36.63-9.42-60.53S136.84,165.79,149.32,181.93Z"/><path class="cls-2" d="M146.75,176.79c-4-15.4,21.88-32.52,46.45-11.06,9.79,8.55,14.82,17,16.87,24.86,3.69,14.2-2.22,26.77-7.45,35.67a28.87,28.87,0,0,0-.14-13.32c-6.84-26.33-53.16-31-53.16-31a14.36,14.36,0,0,1-2.57-5.14m-2.06.54a16.3,16.3,0,0,0,2.95,5.9l.56.72.91.1c.45,0,44.92,4.84,51.31,29.43a27,27,0,0,1,.11,12.35L197.9,238.5l6.55-11.16c5.17-8.79,11.59-22.23,7.69-37.28-2.37-9.11-8.27-17.84-17.54-25.94-15.59-13.62-31.51-12-40.41-6.53-7.66,4.73-11.39,12.48-9.5,19.74Z"/><path class="cls-4" d="M213.58,102.94c0-50.49-22.9-86.57-84.75-86.57-62.45,0-84.75,36.08-84.75,86.57,0,31.81,15.07,59.82,37.93,76.19a89.38,89.38,0,0,0,99.41-4.51C201,157.88,213.58,132,213.58,102.94Z"/><path class="cls-4" d="M179.93,154.81c0-16.94-14.1-30.67-51.12-30.67s-51.13,13.73-51.13,30.67c0,8.66-10,7.51-1.5,18.37,1.9,2.44,13.35,8.78,14.58,10,9.73,9.81,12,20.16,4.43,27.44-12.2,11.68-30,12-58.64-.53a98,98,0,0,1-24.39-15.5C10.4,193.12.25,195.93,1,199.48c5.3,27.23,28.94,54.18,74.1,54.18,46.57,0,85.11-29.46,90.41-57.78a29.51,29.51,0,0,1,1.61-5.59,20.88,20.88,0,0,1,7.15-11.88,46,46,0,0,0,7.2-5.17C187.48,167.55,179.93,160.94,179.93,154.81Z"/><path class="cls-5" d="M168.81,21.8c4.86-2.57,10.31-3.53,14.16,1.38-1-3.26-5.74-7.55-12.48-8.13,4.65-2.24,10.71-3.23,18.34-1C184.11,11.36,170.9,9,159.31,12c.23-.56.45-1.12.62-1.65,2.59-8,6.82-5.89,7.1-5.74C154.79-2.43,145.21,23,146.71,14.81a12.09,12.09,0,0,0,.15-3.12,10.68,10.68,0,0,1,6-3.89c-1.7-.84-4.32-1-7.23-.75-2.13-4.95-6.55-8.32-9.14-5.91,1.46,1.5,2,4.19,2.07,7.34A36,36,0,0,0,135,9.79c-4.56-9.3-13.76-7.08-17.25-3.29,6.19-3.46,9.07,2,10.41,8-.53.75-1.31.38-1.31,1.15,0,6.28-9.41-12.73-36.73-8.92.63-.07,9.94-1.13,12.19,5.16.9,2.5.39,3.36,3.8,6.18-25-10.33-49.65-3.33-55,.59C61.9,15,74,17.24,83.4,20.34,70.53,23.25,60.85,30.6,62.28,32.43c24.19-15.26,34.74-4.07,36.38-2,1.42,2.65,7.66,5.92,29.83,5.9,25.07,0,30.28-4.54,30.78-7.27a46.51,46.51,0,0,1,4.31-3.77c3.66-1.61,9.69-2.61,19.57-1.06C183.55,23.12,176.9,21.5,168.81,21.8Z"/><path class="cls-1" d="M131.71,99c-.67-.82,11.29,13.06,35.64,6.71C162.06,108.88,142.29,112.06,131.71,99Z"/><path class="cls-1" d="M130.49,103c-.83-.76,13.93,12.11,41.54,3.79C166.15,110.38,143.61,115.16,130.49,103Z"/><ellipse class="cls-6" cx="93.37" cy="75.17" rx="22.95" ry="24.14" transform="matrix(0.99, -0.15, 0.15, 0.99, -10.32, 15.02)"/><circle class="cls-7" cx="92.47" cy="75.15" r="13.26"/><ellipse class="cls-6" cx="153.49" cy="78.64" rx="24.14" ry="22.95" transform="translate(52.49 218.43) rotate(-81.28)"/><circle class="cls-7" cx="148.27" cy="82.85" r="13.26"/><path class="cls-1" d="M177,62.83c.67.82-11.29-13.06-35.65-6.7C146.68,53,166.44,49.77,177,62.83Z"/><path class="cls-1" d="M178.25,58.84c.83.77-13.93-12.11-41.54-3.79C142.58,51.45,165.13,46.68,178.25,58.84Z"/><path class="cls-5" d="M183.18,65.16s-15.62-26-43-21.64c-7,2.31-4.11,12.36.55,10.56C147.3,51.55,156.72,44.15,183.18,65.16Z"/><path class="cls-5" d="M63.13,51.21S85.5,27.64,112.72,38.8c6.68,4.1,1.3,14-3.08,11C103.49,45.54,95.51,35.51,63.13,51.21Z"/><path class="cls-8" d="M171.59,85.24s16,8.7,10.82,25.88,3.3,46.59,12.24,48.47"/><ellipse class="cls-9" cx="147.92" cy="77.33" rx="27.82" ry="25.05" transform="translate(52.66 214.39) rotate(-82.8)"/><ellipse class="cls-10" cx="147.92" cy="77.33" rx="27.82" ry="25.05" transform="translate(52.66 214.39) rotate(-82.8)"/></svg>