<svg id="Ebene_1" data-name="Ebene 1" xmlns="http://www.w3.org/2000/svg" viewBox="0 0 256 256"><defs><style>.cls-1{fill:#7d858c;}.cls-2{fill:#fff;}.cls-3{fill:#37434e;}.cls-4{fill:#a7b2bb;}.cls-5{fill:#662d91;}.cls-6{fill:#efecdb;}.cls-7{fill:#282c36;}.cls-8{fill:#1a1a1a;}</style></defs><title>Mastomojies [Wiederhergestellt]</title><path class="cls-1" d="M253.87,110.14c-7.51,50.88-37.72,88.28-67.48,83.54S138.6,143.84,146.1,93s36.53-78.23,66.29-73.49S261.38,59.26,253.87,110.14Z"/><path class="cls-1" d="M2.13,110.14C9.64,161,39.85,198.42,69.61,193.68S117.4,143.84,109.9,93,73.37,14.74,43.61,19.48-5.38,59.26,2.13,110.14Z"/><path class="cls-2" d="M171.63,158.42s21.37,57.69,56.31,40.44c-11.37,11.36-30.95,26.57-61,6.1S152.87,150.4,171.63,158.42Z"/><path class="cls-3" d="M166,157.22a14.26,14.26,0,0,1,5.62,1.2S187.8,202.08,215,202.08a29.06,29.06,0,0,0,12.93-3.22c-7.3,7.3-18,16.18-32.65,16.18-8.17,0-17.57-2.76-28.31-10.08-26.95-18.38-16.88-47.74-1-47.74m0-2.13h0c-7.5,0-14.06,5.56-16.71,14.16-3.09,10-.62,25.8,16.48,37.47,10.17,6.94,20.09,10.45,29.51,10.45,15.55,0,26.94-9.59,34.16-16.81l9.15-9.14L227,197a27.1,27.1,0,0,1-12,3c-25.4,0-41.23-41.85-41.38-42.27l-.32-.86-.84-.36a16.38,16.38,0,0,0-6.46-1.37Z"/><path class="cls-2" d="M85.21,156.54S63.84,214.23,28.9,197c11.36,11.37,30.94,26.58,61,6.1S104,148.51,85.21,156.54Z"/><path class="cls-3" d="M90.82,155.34c15.91,0,26,29.35-1,47.73-10.74,7.33-20.14,10.09-28.31,10.09-14.66,0-25.35-8.89-32.65-16.19a28.9,28.9,0,0,0,12.93,3.22c27.2,0,43.38-43.65,43.38-43.65a14.21,14.21,0,0,1,5.61-1.2m0-2.13a16.37,16.37,0,0,0-6.45,1.37l-.84.36-.32.86c-.16.42-16,42.26-41.38,42.26a27,27,0,0,1-12-3l-11.6-5.73,9.15,9.15c7.22,7.22,18.61,16.81,34.16,16.81,9.41,0,19.34-3.52,29.51-10.45,17.1-11.67,19.56-27.48,16.48-37.48-2.66-8.6-9.22-14.15-16.72-14.15Z"/><path class="cls-3" d="M185.9,35.09l-5.16,141.18s43-20,43-68.67S190.73,36,185.9,35.09Z"/><path class="cls-3" d="M70.61,35.09l5.16,140.09s-43-19.88-43-68.14S65.78,36,70.61,35.09Z"/><path class="cls-4" d="M128.42,18.37c-62.46,0-84.75,36.08-84.75,86.57,0,31.81,15.07,59.82,37.93,76.19a86.87,86.87,0,0,0,9.79,5.16c8.84,9.47,10.71,19.34,3.39,26.35-12.2,11.68-30,12-58.64-.53a98,98,0,0,1-24.39-15.5C10,195.12-.16,197.93.53,201.48c5.31,27.23,29,54.18,74.1,54.18,46.58,0,85.12-29.46,90.42-57.78a28.79,28.79,0,0,1,1.61-5.59,21,21,0,0,1,4.67-9.42,87.35,87.35,0,0,0,9.68-6.25c19.59-16.74,32.16-42.63,32.16-71.68C213.17,54.45,190.27,18.37,128.42,18.37Z"/><path class="cls-5" d="M168.4,23.8c4.86-2.57,10.31-3.53,14.16,1.38-1-3.26-5.74-7.55-12.48-8.13,4.64-2.24,10.7-3.23,18.34-1C183.7,13.36,170.49,11,158.9,14c.23-.56.45-1.12.62-1.65,2.59-8,6.82-5.89,7.1-5.74C154.38-.43,144.8,25,146.3,16.81a11.66,11.66,0,0,0,.14-3.12,10.74,10.74,0,0,1,6.05-3.89c-1.7-.84-4.32-1-7.23-.75-2.13-5-6.55-8.32-9.14-5.91,1.46,1.5,2,4.19,2.07,7.34a36,36,0,0,0-3.62,1.31C130,2.49,120.81,4.71,117.32,8.5c6.19-3.46,9.07,2,10.41,8-.53.75-1.31.38-1.31,1.15,0,6.28-9.41-12.73-36.73-8.92.62-.07,9.93-1.13,12.19,5.16.9,2.5.38,3.36,3.8,6.18-25-10.33-49.65-3.33-55,.59C61.48,17,73.6,19.24,83,22.34,70.12,25.25,60.44,32.6,61.87,34.43c24.19-15.26,34.74-4.07,36.37-2,1.43,2.65,7.67,5.92,29.84,5.9,25.06,0,30.28-4.54,30.78-7.27a46.51,46.51,0,0,1,4.31-3.77c3.66-1.61,9.69-2.61,19.57-1.06C183.14,25.12,176.49,23.5,168.4,23.8Z"/><ellipse class="cls-6" cx="166.7" cy="105.17" rx="21.57" ry="27.96" transform="translate(54.46 267.19) rotate(-87.53)"/><ellipse class="cls-6" cx="95.55" cy="105.17" rx="27.96" ry="21.57" transform="matrix(1, -0.04, 0.04, 1, -4.44, 4.21)"/><ellipse class="cls-7" cx="166.74" cy="104.22" rx="9.63" ry="13.26" transform="translate(38.45 253.24) rotate(-81.28)"/><ellipse class="cls-7" cx="90.99" cy="101.91" rx="13.26" ry="9.63" transform="translate(-4.3 4.01) rotate(-2.47)"/><path class="cls-5" d="M191.47,67.3s-20.17-25-50.72-18.84c-7.7,2.75-3.49,12.6,1.62,10.51C149.53,56,159.5,48,191.47,67.3Z"/><path class="cls-5" d="M65.37,67.3s20.16-25,50.72-18.84c7.7,2.75,3.48,12.6-1.62,10.51C107.31,56,97.34,48,65.37,67.3Z"/><path class="cls-8" d="M198.43,72.5C155.89,89.69,102.07,90.16,59,73.74c-6.4-2.44-12.71,4.8-12.33,11.63.46,8.1,6.64,22,8.49,29.84a31.52,31.52,0,0,0,36,23.72l13.41-2.28a151.28,151.28,0,0,1,48.19-.43l13.93,2.12a31.53,31.53,0,0,0,35.53-24.24c1.77-8,8.65-22.12,8.8-30.33C211.11,77,204.72,70,198.43,72.5Zm-80,29.46a84,84,0,0,1-7.7,20.08,6,6,0,0,1-4.62,3.08A54,54,0,0,1,67.81,115a35.26,35.26,0,0,1-7.29-20.36,2.92,2.92,0,0,1,3.65-3,138.19,138.19,0,0,0,49,4.09A5,5,0,0,1,118.47,102Zm71.86,12a54.07,54.07,0,0,1-38.16,10.8,6.06,6.06,0,0,1-4.67-3,84,84,0,0,1-8-19.94,5,5,0,0,1,5.15-6.3,138.25,138.25,0,0,0,49-4.94,2.92,2.92,0,0,1,3.7,2.89A35.28,35.28,0,0,1,190.33,113.92Z"/></svg>