<svg id="Ebene_1" data-name="Ebene 1" xmlns="http://www.w3.org/2000/svg" xmlns:xlink="http://www.w3.org/1999/xlink" viewBox="0 0 256 256"><defs><style>.cls-1{fill:#c1272d;}.cls-2{fill:#fff;}.cls-3{fill:#37434e;}.cls-4{fill:#ccc;}.cls-5{fill:#c3c3c3;}.cls-6{fill:#662d91;}.cls-7{fill:#7d858c;}.cls-8{fill:#eedbbf;}.cls-9{fill:#282c36;stroke:#c1272d;stroke-width:2px;}.cls-11,.cls-9{stroke-miterlimit:10;}.cls-10,.cls-12{fill:none;stroke-linecap:round;stroke-linejoin:round;}.cls-10{stroke:#42210b;stroke-width:3px;}.cls-11{opacity:0.41;fill:url(#Weißgold);stroke:url(#Zinn_radial);}.cls-12{stroke-width:4px;stroke:url(#Messing_radial);}</style><linearGradient id="Weißgold" x1="148.37" y1="94.94" x2="207.17" y2="94.94" gradientTransform="matrix(0.95, 0.21, -0.23, 0.99, 13.87, -38.71)" gradientUnits="userSpaceOnUse"><stop offset="0.01" stop-color="#e8eaeb"/><stop offset="0.25" stop-color="#fffdea"/><stop offset="0.42" stop-color="#f0ecdd"/><stop offset="0.6" stop-color="#ddd6cc"/><stop offset="0.79" stop-color="#f2f2f2"/><stop offset="1" stop-color="#dedbc5"/></linearGradient><radialGradient id="Zinn_radial" cx="174.75" cy="94.95" r="27.72" gradientTransform="matrix(1.03, 0.22, -0.23, 0.99, 3.62, -40.9)" gradientUnits="userSpaceOnUse"><stop offset="0.01" stop-color="#bbbcc2"/><stop offset="0.33" stop-color="#b6b6b3"/><stop offset="0.35" stop-color="#b6b5b2"/><stop offset="0.5" stop-color="#a7a9a9"/><stop offset="0.67" stop-color="#91989c"/><stop offset="1" stop-color="#71797d"/></radialGradient><radialGradient id="Messing_radial" cx="174.75" cy="94.95" r="29.22" gradientTransform="matrix(1.03, 0.22, -0.23, 0.99, 3.62, -40.9)" gradientUnits="userSpaceOnUse"><stop offset="0.18" stop-color="#f8f0e4"/><stop offset="0.59" stop-color="#f2d78f"/><stop offset="1" stop-color="#c58511"/></radialGradient></defs><title>Mastomojies [Wiederhergestellt]</title><path class="cls-1" d="M203,218.32c-38-17-94.8-21.23-138.71-3.28C26.65,234.88,3.59,2.62,3.59,2.62c10.23,61,237.13,61,247.37,0C251,2.62,230.41,237.24,203,218.32Z"/><path class="cls-2" d="M130.35,155.45s-60.54,11-49.67,48.37c-9.2-13.18-20.75-35.12,4.66-61.09S141.53,138.4,130.35,155.45Z"/><path class="cls-3" d="M132.51,150.14a14.1,14.1,0,0,1-2.16,5.31s-45.82,8.29-50.58,35.08a29.07,29.07,0,0,0,.91,13.29c-5.91-8.46-12.79-20.54-10.22-35,1.43-8,5.79-16.82,14.88-26.11,22.82-23.31,49.95-8.26,47.17,7.41m2.1.37h0c1.31-7.39-3-14.82-11-18.94-9.3-4.78-25.3-5.12-39.78,9.67-8.61,8.8-13.81,18-15.46,27.23-2.72,15.31,4.73,28.2,10.57,36.57l7.41,10.61-3.61-12.43a27,27,0,0,1-.86-12.32c4.45-25,48.41-33.27,48.86-33.35l.9-.16.5-.77a16.34,16.34,0,0,0,2.48-6.11Z"/><path class="cls-2" d="M130.14,159.07s61.2,6.19,53.29,44.34c8.14-13.85,17.94-36.63-9.42-60.53S117.65,142.94,130.14,159.07Z"/><path class="cls-3" d="M127.56,153.94c-4-15.4,21.89-32.52,46.45-11.06,9.79,8.55,14.82,17,16.88,24.86,3.68,14.2-2.23,26.77-7.46,35.67a29,29,0,0,0-.13-13.32c-6.84-26.33-53.16-31-53.16-31a14.11,14.11,0,0,1-2.58-5.13m-2.06.54a16.3,16.3,0,0,0,2.95,5.9l.56.72.91.1c.45,0,44.93,4.84,51.31,29.43a27,27,0,0,1,.11,12.35l-2.63,12.67,6.56-11.16c5.17-8.79,11.59-22.23,7.68-37.28-2.37-9.11-8.27-17.84-17.54-25.94-15.59-13.62-31.51-12-40.41-6.53-7.66,4.73-11.39,12.48-9.5,19.74Z"/><path class="cls-4" d="M249.87,112.22c-7.55,51.13-34.32,66.91-64.6,67.58-32.14.72-71.6-56.42-29.81-77.85,52.7-27,65.35-92.14,72.67-92.14C236.79,9.81,257.42,61.08,249.87,112.22Z"/><path class="cls-4" d="M6.13,112.22c7.55,51.13,34.32,66.91,64.6,67.58,32.14.72,71.6-56.42,29.81-77.85-52.7-27-65.35-92.14-72.67-92.14C19.21,9.81-1.42,61.08,6.13,112.22Z"/><path class="cls-5" d="M187.54,33.5l-5.18,141.9s43.23-20.14,43.23-69S192.39,34.45,187.54,33.5Z"/><path class="cls-5" d="M71.67,33.5l5.18,140.8s-43.23-20-43.23-68.48S66.82,34.44,71.67,33.5Z"/><path class="cls-4" d="M215,103.7c0-50.74-23-87-85.18-87C67,16.7,44.59,53,44.59,103.7c0,32,15.15,60.13,38.12,76.58a89.81,89.81,0,0,0,99.91-4.53C202.31,158.92,215,132.9,215,103.7Z"/><path class="cls-6" d="M189.68,33.58s-14.55,30.21-47.09,31.23c-8.48-1-6.54-12-.85-11.07C149.72,55,161.77,60.78,189.68,33.58Z"/><path class="cls-6" d="M71.49,33.58s14.56,30.21,47.09,31.23c8.49-1,6.54-12,.86-11.07C111.45,55,99.41,60.78,71.49,33.58Z"/><path class="cls-4" d="M183.19,155.59c0-16.94-14.39-30.68-52.17-30.68s-52.17,13.74-52.17,30.68c0,8.66-10.21,7.51-1.54,18.37,1.94,2.43,13.63,8.77,14.89,10,9.92,9.8,12.27,20.16,4.51,27.43-12.45,11.68-30.63,12-59.84-.52A100.88,100.88,0,0,1,12,195.39c-1.8-1.49-12.15,1.32-11.45,4.87C6,227.48,30.07,254.44,76.16,254.44c47.53,0,86.86-29.47,92.27-57.78a27.89,27.89,0,0,1,1.64-5.59,20.75,20.75,0,0,1,7.3-11.88,47.23,47.23,0,0,0,7.34-5.17C190.9,168.33,183.19,161.71,183.19,155.59Z"/><path class="cls-6" d="M170.45,22.8c4.86-2.57,10.3-3.53,14.15,1.38-1-3.26-5.73-7.55-12.47-8.13,4.64-2.24,10.7-3.23,18.34-1C185.75,12.36,172.54,10,160.94,13c.24-.56.46-1.12.63-1.65,2.58-8,6.82-5.89,7.1-5.74C156.42-1.43,146.85,24,148.35,15.81a11.66,11.66,0,0,0,.14-3.12,10.74,10.74,0,0,1,6-3.89c-1.7-.84-4.32-1-7.23-.75-2.13-5-6.55-8.32-9.14-5.91,1.46,1.5,2,4.19,2.07,7.34a36,36,0,0,0-3.62,1.31c-4.56-9.3-13.76-7.08-17.26-3.29,6.2-3.46,9.08,2,10.41,8-.53.75-1.3.38-1.3,1.15,0,6.28-9.42-12.73-36.73-8.92.62-.07,9.93-1.13,12.19,5.16.89,2.5.38,3.36,3.79,6.18-25-10.33-49.64-3.33-55,.59C63.53,16,75.64,18.24,85,21.34,72.17,24.25,62.48,31.6,63.92,33.43c24.19-15.26,34.74-4.07,36.37-2,1.42,2.65,7.66,5.92,29.84,5.9,25.06,0,30.27-4.54,30.78-7.27a46.51,46.51,0,0,1,4.31-3.77c3.65-1.61,9.68-2.61,19.57-1.06C185.19,24.12,178.54,22.5,170.45,22.8Z"/><path class="cls-7" d="M138.9,110.46c-.67-.82,11.29,13.06,35.64,6.71C169.25,120.34,149.48,123.52,138.9,110.46Z"/><path class="cls-7" d="M137.68,114.45c-.83-.76,13.93,12.11,41.54,3.79C173.34,121.84,150.8,126.62,137.68,114.45Z"/><ellipse class="cls-8" cx="100.56" cy="86.63" rx="22.95" ry="24.14" transform="matrix(0.99, -0.15, 0.15, 0.99, -11.97, 16.24)"/><circle class="cls-9" cx="100.56" cy="89.61" r="13.26"/><ellipse class="cls-8" cx="160.68" cy="90.1" rx="24.14" ry="22.95" transform="translate(47.26 235.27) rotate(-81.28)"/><circle class="cls-9" cx="160.01" cy="91.58" r="13.26"/><path class="cls-7" d="M184.22,74.29c.67.83-11.29-13.06-35.65-6.7C153.87,64.41,173.63,61.23,184.22,74.29Z"/><path class="cls-7" d="M185.44,70.3c.83.77-13.93-12.11-41.54-3.78C149.77,62.92,172.32,58.14,185.44,70.3Z"/><path class="cls-10" d="M188.74,100.73s17.28,8.71,11.69,25.89,3.56,46.58,13.22,48.47"/><ellipse class="cls-11" cx="161.58" cy="92.66" rx="28.74" ry="27.75" transform="translate(-15.46 34.79) rotate(-11.73)"/><ellipse class="cls-12" cx="161.58" cy="92.66" rx="28.74" ry="27.75" transform="translate(-15.46 34.79) rotate(-11.73)"/></svg>