<svg id="Ebene_1" data-name="Ebene 1" xmlns="http://www.w3.org/2000/svg" viewBox="0 0 256 256"><defs><style>.cls-1{fill:#607849;}.cls-2{fill:#e6e6e6;}.cls-3{fill:#ccc;}.cls-4{fill:#999;}.cls-5{fill:#b3b3b3;}.cls-6{fill:#fff;opacity:0.64;}.cls-7{fill:#4a671e;}.cls-8{fill:#8d9e7c;}.cls-9{fill:#efecdb;}.cls-10{fill:#282c36;}.cls-11{fill:none;stroke:#282c36;stroke-miterlimit:10;}.cls-12{fill:#3687cf;}</style></defs><title>Mastomojies [Wiederhergestellt]</title><path class="cls-1" d="M2.13,109.33c7.51,50.88,37.72,88.28,67.48,83.54S117.4,143,109.9,92.16,73.37,13.94,43.61,18.68-5.38,58.46,2.13,109.33Z"/><path class="cls-1" d="M253.87,109.33c-7.51,50.88-37.72,88.28-67.48,83.54S138.6,143,146.1,92.16s36.53-78.22,66.29-73.48S261.38,58.46,253.87,109.33Z"/><rect class="cls-2" x="127.74" y="162.8" width="120.54" height="19.16" rx="3.68" transform="translate(125.45 -74.9) rotate(33.29)"/><polygon class="cls-3" points="142.04 153.66 137.68 150.8 153.15 138.04 157.51 140.9 142.04 153.66"/><polygon class="cls-3" points="151.36 159.78 147 156.91 162.47 144.15 166.83 147.02 151.36 159.78"/><polygon class="cls-3" points="160.68 165.89 156.32 163.03 171.79 150.27 176.15 153.13 160.68 165.89"/><polygon class="cls-3" points="169.99 172.01 165.63 169.15 181.1 156.38 185.46 159.25 169.99 172.01"/><polygon class="cls-3" points="178.3 177.47 173.94 174.6 189.41 161.84 193.77 164.7 178.3 177.47"/><polygon class="cls-3" points="187.62 183.58 183.26 180.72 198.73 167.96 203.09 170.82 187.62 183.58"/><polygon class="cls-3" points="196.94 189.7 192.57 186.84 208.04 174.07 212.4 176.94 196.94 189.7"/><polygon class="cls-3" points="206.25 195.81 201.89 192.95 217.36 180.19 221.72 183.05 206.25 195.81"/><polygon class="cls-4" points="215.57 201.93 211.21 199.07 226.68 186.31 231.04 189.17 215.57 201.93"/><polygon class="cls-3" points="224.88 208.05 220.52 205.18 235.99 192.42 240.35 195.28 224.88 208.05"/><rect class="cls-5" x="213.81" y="186.46" width="17.86" height="18.47" transform="translate(143.94 -90.14) rotate(33.29)"/><polygon class="cls-4" points="217.09 216.04 206.31 208.96 210.21 198.51 225.13 208.31 217.09 216.04"/><polygon class="cls-3" points="228.38 175.35 239.16 182.43 235.27 192.88 220.34 183.08 228.38 175.35"/><path class="cls-6" d="M220.34,183.08s4.1,4.09,14.93,9.8A110.62,110.62,0,0,0,220.34,183.08Z"/><path class="cls-6" d="M210.25,198.45s4.1,4.08,14.93,9.8A110.62,110.62,0,0,0,210.25,198.45Z"/><rect class="cls-2" x="21.03" y="162.8" width="120.54" height="19.16" rx="3.68" transform="translate(243.87 271.86) rotate(146.71)"/><polygon class="cls-3" points="127.27 153.66 131.63 150.8 116.16 138.04 111.8 140.9 127.27 153.66"/><polygon class="cls-3" points="117.95 159.78 122.31 156.91 106.84 144.15 102.48 147.02 117.95 159.78"/><polygon class="cls-3" points="108.63 165.89 113 163.03 97.53 150.27 93.16 153.13 108.63 165.89"/><polygon class="cls-3" points="99.32 172.01 103.68 169.15 88.21 156.38 83.85 159.25 99.32 172.01"/><polygon class="cls-3" points="91.01 177.47 95.37 174.6 79.9 161.84 75.54 164.7 91.01 177.47"/><polygon class="cls-3" points="81.69 183.58 86.05 180.72 70.58 167.96 66.22 170.82 81.69 183.58"/><polygon class="cls-3" points="72.38 189.7 76.74 186.84 61.27 174.07 56.91 176.94 72.38 189.7"/><polygon class="cls-3" points="63.06 195.81 67.42 192.95 51.95 180.19 47.59 183.05 63.06 195.81"/><polygon class="cls-4" points="53.74 201.93 58.1 199.07 42.63 186.31 38.27 189.17 53.74 201.93"/><polygon class="cls-3" points="44.43 208.05 48.79 205.18 33.32 192.42 28.96 195.28 44.43 208.05"/><rect class="cls-5" x="37.65" y="186.46" width="17.86" height="18.47" transform="matrix(-0.84, 0.55, -0.55, -0.84, 192.91, 333.73)"/><polygon class="cls-4" points="52.22 216.04 63 208.96 59.11 198.51 44.18 208.31 52.22 216.04"/><polygon class="cls-3" points="40.93 175.35 30.15 182.43 34.04 192.88 48.97 183.08 40.93 175.35"/><path class="cls-6" d="M49,183.08s-4.1,4.09-14.93,9.8A110.62,110.62,0,0,1,49,183.08Z"/><path class="cls-6" d="M59.06,198.45s-4.1,4.08-14.93,9.8A110.62,110.62,0,0,1,59.06,198.45Z"/><path class="cls-7" d="M185.9,34.28l-5.16,141.19s43-20,43-68.68S190.73,35.22,185.9,34.28Z"/><path class="cls-7" d="M70.61,34.28l5.16,140.1s-43-19.88-43-68.15S65.78,35.22,70.61,34.28Z"/><path class="cls-8" d="M213.17,104.13c0-50.48-22.9-86.57-84.75-86.57-62.46,0-84.75,36.09-84.75,86.57,0,31.81,15.07,59.83,37.93,76.2A89.36,89.36,0,0,0,181,175.81C200.6,159.07,213.17,133.19,213.17,104.13Z"/><path class="cls-8" d="M179.52,156c0-16.94-14.1-30.68-51.13-30.68S77.27,139.07,77.27,156c0,8.66-10,7.51-1.5,18.37,1.9,2.43,13.35,8.77,14.58,10,9.73,9.8,12,20.16,4.43,27.43-12.2,11.68-30,12-58.64-.52a98.6,98.6,0,0,1-24.39-15.5C10,194.32-.16,197.13.53,200.67c5.31,27.23,29,54.19,74.1,54.19,46.58,0,85.12-29.47,90.42-57.78a28.59,28.59,0,0,1,1.61-5.59,20.83,20.83,0,0,1,7.15-11.88,47.25,47.25,0,0,0,7.2-5.17C187.07,168.75,179.52,162.13,179.52,156Z"/><ellipse class="cls-9" cx="158.65" cy="97.26" rx="22.95" ry="21.98" transform="translate(-12.91 25.17) rotate(-8.72)"/><circle class="cls-10" cx="158.99" cy="98.88" r="13.26"/><path class="cls-8" d="M81.06,4.13a841.68,841.68,0,0,1,94.24,0A34.64,34.64,0,0,1,208,41.25l-1.6,21.44c-51.12-34.24-103.3-32.95-156.42,0L48.4,41.15A34.64,34.64,0,0,1,81.06,4.13Z"/><line class="cls-11" x1="74.57" y1="44.54" x2="88.03" y2="60.64"/><path class="cls-10" d="M73.19,45.82a1.88,1.88,0,1,1,2.64.24A1.87,1.87,0,0,1,73.19,45.82Z"/><path class="cls-10" d="M86.53,61.77a1.88,1.88,0,1,0,.24-2.65A1.88,1.88,0,0,0,86.53,61.77Z"/><line class="cls-11" x1="73.25" y1="59.32" x2="89.35" y2="45.86"/><path class="cls-10" d="M74.53,60.7a1.88,1.88,0,1,1,.24-2.64A1.88,1.88,0,0,1,74.53,60.7Z"/><path class="cls-10" d="M90.48,47.36a1.88,1.88,0,1,0-2.65-.24A1.88,1.88,0,0,0,90.48,47.36Z"/><line class="cls-11" x1="106.61" y1="39.2" x2="117.44" y2="57.17"/><path class="cls-10" d="M105.05,40.25a1.88,1.88,0,1,1,2.58.64A1.87,1.87,0,0,1,105.05,40.25Z"/><path class="cls-10" d="M115.78,58.06a1.88,1.88,0,1,0,.64-2.58A1.87,1.87,0,0,0,115.78,58.06Z"/><line class="cls-11" x1="103.04" y1="53.6" x2="121.01" y2="42.77"/><path class="cls-10" d="M104.09,55.16a1.88,1.88,0,1,1,.64-2.58A1.87,1.87,0,0,1,104.09,55.16Z"/><path class="cls-10" d="M121.9,44.43a1.88,1.88,0,1,0-2.58-.64A1.87,1.87,0,0,0,121.9,44.43Z"/><line class="cls-11" x1="135.39" y1="40.47" x2="149.61" y2="55.9"/><path class="cls-10" d="M134.07,41.82a1.88,1.88,0,1,1,2.66.1A1.87,1.87,0,0,1,134.07,41.82Z"/><path class="cls-10" d="M148.16,57.11a1.88,1.88,0,1,0,.11-2.66A1.88,1.88,0,0,0,148.16,57.11Z"/><line class="cls-11" x1="134.78" y1="55.3" x2="150.21" y2="41.07"/><path class="cls-10" d="M136.13,56.62a1.88,1.88,0,1,1,.11-2.66A1.89,1.89,0,0,1,136.13,56.62Z"/><path class="cls-10" d="M151.42,42.52a1.88,1.88,0,1,0-2.66-.11A1.89,1.89,0,0,0,151.42,42.52Z"/><line class="cls-11" x1="167.85" y1="43.08" x2="184.99" y2="55.18"/><path class="cls-10" d="M166.85,44.67a1.88,1.88,0,1,1,2.62-.45A1.89,1.89,0,0,1,166.85,44.67Z"/><path class="cls-10" d="M183.83,56.66a1.88,1.88,0,1,0-.45-2.62A1.88,1.88,0,0,0,183.83,56.66Z"/><line class="cls-11" x1="170.37" y1="57.7" x2="182.48" y2="40.56"/><path class="cls-10" d="M172,58.71a1.88,1.88,0,1,1-.45-2.62A1.88,1.88,0,0,1,172,58.71Z"/><path class="cls-10" d="M184,41.72a1.88,1.88,0,1,0-2.62.45A1.89,1.89,0,0,0,184,41.72Z"/><ellipse class="cls-9" cx="105.74" cy="96.88" rx="22.95" ry="21.98" transform="matrix(0.99, -0.15, 0.15, 0.99, -13.46, 17.15)"/><circle class="cls-10" cx="106.08" cy="98.5" r="13.26"/><path class="cls-12" d="M155.88,19.21c10.11.14,18.1-2.68,20.54-4.57-7.84,2.77-16.64,1.08-23.47-1.29,9.36-2.23,16.39-7.84,15.35-9.25-17.58,11.68-25.24,3.11-26.43,1.55-1-2-5.56-4.52-21.67-4.51-3.57,0-6.57.14-9.11.37-3.52-.23-7.69-.36-12.63-.37-22.34,0-28.62,2.49-30.06,4.51C66.76,7.21,56.13,15.78,31.76,4.1c-1.44,1.41,8.31,7,21.28,9.25-9.47,2.37-21.67,4.06-32.54,1.29,5.38,3,30.25,8.36,55.39.45-3.44,2.16-2.92,2.82-3.82,4.73-2.28,4.81-11.65,4-12.28,3.95,12,1.27,20.59-.78,26.44-3.1A34.26,34.26,0,0,0,97.4,19.8c-1.57,3.7-4.46,6.4-9.78,4.14,3.15,2.6,10.94,4.21,15.82-.63a12.17,12.17,0,0,0,4.27.21,14.26,14.26,0,0,0,.66,1.36A5.33,5.33,0,0,1,106.56,28c1.24.88,2.9.75,4.53,0,1.17.78,2.37.91,3.26,0a4.76,4.76,0,0,1-.92-1.63,11.78,11.78,0,0,0,2.34-2.89l1,.06A7.17,7.17,0,0,0,127,24.83a11.56,11.56,0,0,0,10.24.52c-.27.11-4.36,1.63-7-4a29.68,29.68,0,0,0,17.78,2.44c-.42.05-6.27.74-8.42-3A64.52,64.52,0,0,0,155.88,19.21Zm-15.12-1.82c.57,0,1.11-.09,1.64-.17a50.45,50.45,0,0,0,10.24,1.85A29.85,29.85,0,0,1,140.76,17.39Zm-35.76,4,.35.1a6.47,6.47,0,0,1-.86.58C104.66,21.88,104.84,21.67,105,21.42Zm17.51,1.7c.18-.06.37-.11.54-.18q-.4-.07-.78-.18a10.35,10.35,0,0,1-1-2.19,26.16,26.16,0,0,0,5.34,4A3.48,3.48,0,0,1,122.51,23.12Z"/><path class="cls-12" d="M99.68,1.14l51.71,26a7.81,7.81,0,0,0,1.81-1.71l1-.06a11.74,11.74,0,0,0,2.33,2.89,4.6,4.6,0,0,1-.92,1.63c.89.88,2.09.75,3.26,0,1.63.78,3.29.91,4.53,0a5.38,5.38,0,0,1-1.81-3.16,14.26,14.26,0,0,0,.66-1.36,12.16,12.16,0,0,0,4.27-.21c4.89,4.84,12.67,3.23,15.83.63-5.33,2.26-8.22-.44-9.79-4.14a34.26,34.26,0,0,0,11.17.87c5.86,2.32,14.43,4.37,26.44,3.1-.62.06-10,.86-12.27-3.94-.91-1.92-.39-2.58-3.83-4.74,25.15,7.91,50,2.56,55.39-.44-10.87,2.76-23.07,1.07-32.54-1.3,13-2.23,22.72-7.84,21.28-9.25-24.37,11.68-35,3.11-36.64,1.55-1.43-2-7.72-4.52-30.06-4.5-4.94,0-9.1.13-12.63.36C156.8,3.15,102.46,1.18,99.68,1.14Zm65,22.21.36-.1c.16.25.33.46.51.69A7.8,7.8,0,0,1,164.64,23.35Z"/></svg>