<svg id="Ebene_1" data-name="Ebene 1" xmlns="http://www.w3.org/2000/svg" viewBox="0 0 256 256"><defs><style>.cls-1{fill:#7d858c;}.cls-2{fill:#fff;}.cls-3{fill:#37434e;}.cls-4{fill:#a7b2bb;}.cls-5{fill:#3687cf;}.cls-6{fill:#282c36;}.cls-7{fill:#bcc5cc;}.cls-8{fill:#9ca7af;}</style></defs><title>Mastomojies [Wiederhergestellt]</title><path class="cls-1" d="M2.13,109.77c7.51,50.88,37.72,88.28,67.48,83.54S117.4,143.47,109.9,92.59,73.37,14.37,43.61,19.11-5.38,58.89,2.13,109.77Z"/><path class="cls-2" d="M104,178.12s-58.92,17.69-43.9,53.65c-10.63-12.06-24.57-32.55-2.25-61.22S113.2,159.91,104,178.12Z"/><path class="cls-3" d="M105.56,172.59a14.12,14.12,0,0,1-1.55,5.53s-44.59,13.39-46.3,40.55a28.83,28.83,0,0,0,2.4,13.1c-6.82-7.74-15-19-14.1-33.6.52-8.15,3.86-17.36,11.85-27.62,20-25.73,48.7-13.84,47.7,2m2.13.14c.47-7.49-4.66-14.39-13.07-17.58-9.79-3.71-25.72-2.24-38.44,14.09C48.61,179,44.48,188.64,43.89,198c-1,15.52,7.87,27.5,14.62,35.15l8.55,9.71-5-11.94a26.91,26.91,0,0,1-2.24-12.15c1.6-25.35,44.35-38.51,44.78-38.64l.88-.26.41-.82a16.31,16.31,0,0,0,1.78-6.35Z"/><path class="cls-1" d="M253.87,109.77c-7.51,50.88-37.72,88.28-67.48,83.54S138.6,143.47,146.1,92.59s36.53-78.22,66.29-73.48S261.38,58.89,253.87,109.77Z"/><path class="cls-2" d="M155,178.12s58.92,17.69,43.9,53.65c10.63-12.06,24.58-32.55,2.25-61.22S145.76,159.91,155,178.12Z"/><path class="cls-3" d="M153.4,172.59c-1-15.88,27.66-27.77,47.7-2,8,10.26,11.33,19.47,11.85,27.62.92,14.63-7.27,25.86-14.1,33.6a28.83,28.83,0,0,0,2.4-13.1c-1.71-27.16-46.3-40.55-46.3-40.55a14.12,14.12,0,0,1-1.55-5.53m-2.13.14a16.48,16.48,0,0,0,1.78,6.35l.41.82.88.26c.43.13,43.19,13.29,44.79,38.64A27.19,27.19,0,0,1,196.89,231l-5,11.94,8.55-9.71c6.75-7.65,15.61-19.63,14.63-35.15-.6-9.39-4.73-19.08-12.3-28.79-12.71-16.33-28.65-17.8-38.43-14.09-8.42,3.19-13.55,10.09-13.08,17.58Z"/><path class="cls-3" d="M185.9,34.72,180.74,175.9s43-20,43-68.67S190.73,35.66,185.9,34.72Z"/><path class="cls-3" d="M70.61,34.72l5.16,140.09s-43-19.88-43-68.14S65.78,35.65,70.61,34.72Z"/><path class="cls-4" d="M213.17,104.56c0-50.48-22.9-86.56-84.75-86.56C66,18,43.67,54.08,43.67,104.56c0,31.82,15.07,59.83,37.93,76.2A89.38,89.38,0,0,0,181,176.25C200.6,159.51,213.17,133.62,213.17,104.56Z"/><path class="cls-5" d="M168.4,23.43c4.86-2.57,10.31-3.53,14.16,1.38-1-3.26-5.74-7.56-12.48-8.13,4.64-2.24,10.7-3.24,18.34-1-4.72-2.73-17.93-5.11-29.52-2.05.23-.56.45-1.12.62-1.65,2.59-8,6.82-5.89,7.1-5.74C154.38-.81,144.8,24.59,146.3,16.44a11.66,11.66,0,0,0,.14-3.12,10.74,10.74,0,0,1,6.05-3.89c-1.7-.84-4.32-1-7.23-.75-2.13-5-6.55-8.33-9.14-5.91,1.46,1.49,2,4.19,2.07,7.34a36,36,0,0,0-3.62,1.31c-4.56-9.3-13.76-7.08-17.25-3.29,6.19-3.46,9.07,2,10.41,8-.53.75-1.31.37-1.31,1.15,0,6.28-9.41-12.73-36.73-8.92.62-.08,9.93-1.13,12.19,5.16.9,2.5.38,3.36,3.8,6.18-25-10.34-49.65-3.33-55,.59C61.48,16.67,73.6,18.87,83,22,70.12,24.88,60.44,32.23,61.87,34.06,86.06,18.8,96.61,30,98.24,32c1.43,2.65,7.67,5.91,29.84,5.9,25.06,0,30.28-4.54,30.78-7.27a46.51,46.51,0,0,1,4.31-3.77c3.66-1.61,9.69-2.62,19.57-1.06C183.14,24.75,176.49,23.13,168.4,23.43Z"/><path class="cls-6" d="M96.27,122.55c-12.92,2-25.13-7.7-27.27-21.63a20.42,20.42,0,0,0,0,5.63c2.14,13.93,14.35,23.62,27.27,21.64,11.13-1.71,19.14-11.52,19.77-23.11a.46.46,0,0,0-.45-.46.44.44,0,0,0-.43.32C112.71,114,105.59,121.12,96.27,122.55Z"/><path class="cls-6" d="M149.32,123.53c13,1.13,24.56-9.36,25.77-23.4a20.37,20.37,0,0,1,.37,5.62c-1.2,14-12.73,24.52-25.76,23.41-11.22-1-19.86-10.22-21.27-21.74a.43.43,0,0,1,.33-.53.44.44,0,0,1,.53.33C132.35,116.11,139.94,122.72,149.32,123.53Z"/><path class="cls-5" d="M188.42,113.57s-15.82-27.94-47-26.85c-8,1.46-5.49,11.87-.12,10.63C148.88,95.61,160,89.35,188.42,113.57Z"/><path class="cls-5" d="M53.28,108.25S71,81.5,102,84.78c7.92,2,4.64,12.23-.64,10.62C94,93.13,83.33,86.09,53.28,108.25Z"/><path class="cls-7" d="M170.52,182.11c0-8-7.7-17.25-9.65-20-35.41-50.79-34.48-72.1-27.42-76.5,9.49-5.91,18.39-10.65-5.45-19.83-17.8-6.86-28-2.19-38.09-.7s-11.58,9.6-5.21,12.78,8.41,6.19,7.48,12c-18.09,79.61-5.85,119.85,22.11,121.7S170.52,205.71,170.52,182.11Z"/><path class="cls-8" d="M96.29,89.84c.93-5.83-1.12-8.84-7.49-12S84,66.54,94,65c5.41-.8,10.88-2.53,17.56-2.87C102.66,61.69,96,64.06,89.31,65c-10,1.5-11.59,9.6-5.21,12.78s8.41,6.19,7.48,12c-18.1,79.61-5.85,119.85,22.11,121.7,3.42.22,6.84.3,10.21.23-1.83,0-3.67-.11-5.5-.23C90.44,209.69,78.19,169.45,96.29,89.84Z"/><path class="cls-8" d="M160.87,161.85c-35.41-50.79-34.48-72.1-27.42-76.49,9.49-5.92,18.39-10.66-5.45-19.84a48.58,48.58,0,0,0-20.3-3.58,51,51,0,0,1,15.7,3.56c23.84,9.18,14.95,13.92,5.46,19.84-7.06,4.39-8,25.7,27.42,76.49,1.95,2.79,9.65,12,9.65,20,0,20.71,4.59,7.95,4.59,0S162.82,164.64,160.87,161.85Z"/><path class="cls-8" d="M139.69,133.4s-7.74,4.07-12.37,2.19,3.43,7.41,15,4.25A39.13,39.13,0,0,1,139.69,133.4Z"/><path class="cls-8" d="M148.49,146.79s-9.82,2.13-15.39-.37,5.15,8.72,18.73,6.83A56.13,56.13,0,0,1,148.49,146.79Z"/><path class="cls-8" d="M97.78,199.34s7.69,11.19,18.87,7.19,28.82-14.47,40.23-15.06,9.16-4.59,9.16-4.59l4.15-.88s-.39,18.22-27,23.55-38.07,3.24-46.47-5.77S97.78,199.34,97.78,199.34Z"/></svg>