<svg id="Ebene_1" data-name="Ebene 1" xmlns="http://www.w3.org/2000/svg" viewBox="0 0 256 256"><defs><style>.cls-1{fill:#7b5c39;}.cls-2{fill:#798368;}.cls-3{fill:#706e40;}.cls-4{fill:#c4aa67;}.cls-5{fill:#1d1d1b;}.cls-6{fill:#d60b51;}.cls-7{fill:#efecdb;}.cls-8{fill:#282c36;}</style></defs><title>Mastomojies [Wiederhergestellt]</title><path class="cls-1" d="M230.18,113.57C216.46,54.48,196.12,39.62,143.55,38a39.45,39.45,0,0,1-9.83-1.55c-12.59-3.67-30.81-9.49-43.78-6C59.67,38.62,39.1,63.09,39.44,84.73A34.28,34.28,0,0,1,37.1,97.5a101.23,101.23,0,0,0-6.7,36.32,214.87,214.87,0,0,0,1.39,25.78,54.91,54.91,0,0,0-3.86,21C28.32,210.94,53.65,235.06,84,235c13.14,0,24.39-.2,34-.57,4.29.27,8.77.35,13.47.41,29.54.41,81.77,6.66,109.53-51.8C248,168.29,234.1,130.47,230.18,113.57Z"/><path class="cls-2" d="M35.93,91.82S66.52,116.29,139,85.27C115.46,96.48,55.23,118.18,35.93,91.82Z"/><path class="cls-3" d="M220,75.29s-16.12-35.7-94.78-41C151.3,35,214.81,43.05,220,75.29Z"/><path class="cls-4" d="M125.76,63.51c-1.67.31,57.24-21.91,65.42,30.7C184.6,81,180.4,53.31,125.76,63.51Z"/><path class="cls-4" d="M101.15,217.29c1.69.13-61,6.31-55.22-46.62C48.86,185.15,45.73,213,101.15,217.29Z"/><path class="cls-4" d="M240.87,170.81s-34.18-19.14-100.6,23.31C161.65,179.21,217.52,148,240.87,170.81Z"/><path class="cls-4" d="M131.38,36.77S92.29,18.83,32.24,66C52.76,33,106.05,10.85,131.38,36.77Z"/><path class="cls-5" d="M84.47,160.63h85.39a2.38,2.38,0,0,1,2.38,2.38v4.6a40.76,40.76,0,0,1-40.76,40.76h-8.63a40.76,40.76,0,0,1-40.76-40.76V163a2.38,2.38,0,0,1,2.38-2.38Z" transform="matrix(1, 0.09, -0.09, 1, 16.81, -10.52)"/><path class="cls-6" d="M128.4,183c-11.53-1-21.88,7.55-24.49,19.63a36.8,36.8,0,0,0,15.86,5.21l10.06.9a37.7,37.7,0,0,0,19.33-3.39C148.15,193.58,139.51,184,128.4,183Z"/><ellipse class="cls-7" cx="100.4" cy="102.87" rx="22.95" ry="30.08" transform="translate(-3.61 3.65) rotate(-2.04)"/><circle class="cls-8" cx="100.72" cy="116.38" r="13.26"/><ellipse class="cls-7" cx="155.94" cy="106.15" rx="30.08" ry="22.95" transform="translate(12.21 228.32) rotate(-74.61)"/><circle class="cls-8" cx="152.52" cy="119.22" r="13.26"/><path class="cls-4" d="M68,67.37c-1.41,1,43.62-43.05,72.24,1.86C128.92,59.75,114,36.09,68,67.37Z"/><path class="cls-3" d="M247.24,133.08c1.69-.18-58.85,17.14-62.68-36C190,110.84,192,138.77,247.24,133.08Z"/><path class="cls-3" d="M152.52,18.17s13.81,36.65,92,47C218.53,62.76,155.66,50.68,152.52,18.17Z"/></svg>